<svg xmlns="http://www.w3.org/2000/svg" xmlns:svg="http://www.w3.org/2000/svg" id="svg4579" width="52" height="18.8" version="1.1"><metadata id="metadata4584"/><g id="layer1" transform="translate(-569.1429,-559.73511)"><g id="g4363" transform="translate(2185.0429,-160.36489)"><circle id="circle4365" cx="-1606.5" cy="729.5" r="4.4" d="m -1602.1,729.5 c 0,2.43005 -1.9699,4.4 -4.4,4.4 -2.4301,0 -4.4,-1.96995 -4.4,-4.4 0,-2.43005 1.9699,-4.4 4.4,-4.4 2.4301,0 4.4,1.96995 4.4,4.4 z" style="fill:#2082c4"/><circle id="circle4367" cx="-1589.9" cy="729.5" r="4.4" d="m -1585.5,729.5 c 0,2.43005 -1.97,4.4 -4.4,4.4 -2.4301,0 -4.4,-1.96995 -4.4,-4.4 0,-2.43005 1.9699,-4.4 4.4,-4.4 2.43,0 4.4,1.96995 4.4,4.4 z" style="fill:#2082c4"/><circle id="circle4369" cx="-1573.3" cy="729.5" r="4.4" d="m -1568.9,729.5 c 0,2.43005 -1.97,4.4 -4.4,4.4 -2.4301,0 -4.4,-1.96995 -4.4,-4.4 0,-2.43005 1.9699,-4.4 4.4,-4.4 2.43,0 4.4,1.96995 4.4,4.4 z" style="fill:#2082c4"/></g></g></svg>