<svg xmlns="http://www.w3.org/2000/svg" xmlns:svg="http://www.w3.org/2000/svg" id="svg4579" width="150" height="150" version="1.1"><metadata id="metadata4584"/><g id="layer1" transform="translate(-479.7294,-377.18999)"><g id="g4093" transform="translate(3483.4294,292.58999)"><path style="fill:#fff" id="path4095" d="m -2928.7,89.6 c -38.7,0 -70,31.3 -70,70 0,38.7 31.3,70 70,70 38.7,0 70,-31.3 70,-70 0,-38.6 -31.4,-70 -70,-70 z m 0,136.4 c -36.6,0 -66.4,-29.7 -66.4,-66.4 0,-36.6 29.7,-66.4 66.4,-66.4 36.6,0 66.4,29.7 66.4,66.4 -0.1,36.7 -29.8,66.4 -66.4,66.4 z"/><circle style="fill:#fff" id="circle4097" cx="-2928.7" cy="159.6" r="55.6" d="m -2873.1,159.60001 c 0,30.70703 -24.8929,55.59999 -55.6,55.59999 -30.707,0 -55.5999,-24.89296 -55.5999,-55.59999 0,-30.70704 24.8929,-55.6 55.5999,-55.6 30.7071,0 55.6,24.89296 55.6,55.6 z"/></g><path id="path4337" d="m 590.62935,449.78999 -35.3,-35.1 -36.5,36.2 9.5,9.5 -6.2,6.2 32.1,31.9 33.3,-33.1 -6.3,-6.3 9.4,-9.3 z m -35.2,-16.3 -23.9,23.7 -6.3,-6.3 30.1,-29.9 29,28.8 -6.2,6.2 -22.7,-22.5 z"/></g></svg>