<svg xmlns="http://www.w3.org/2000/svg" xmlns:svg="http://www.w3.org/2000/svg" id="svg4579" width="247.3" height="199.8" version="1.1"><metadata id="metadata4584"/><g id="layer1" transform="translate(-458.10481,-344.45748)"><path id="path4033" d="m 694.10481,349.45748 h -224.7 c -3.5,0 -6.3,2.8 -6.3,6.3 v 29.3 147.9 c 0,3.5 2.8,6.3 6.3,6.3 h 224.7 c 3.5,0 6.3,-2.8 6.3,-6.3 v -147.9 -29.3 c 0,-3.5 -2.8,-6.3 -6.3,-6.3 z m -5.6,178 h -213.6 v -130.5 h 213.6 v 130.5 z m -213.6,-142.4 v -23.7 h 213.6 v 23.7 h -213.6 z"/><path id="path4035" d="m 555.10481,489.55748 c -1.1,1.1 -3,1.1 -4.1,0 l -20.4,-20.4 c -1.3,-1.3 -1.3,-3.5 0,-4.9 l 20.4,-20.4 c 1.1,-1.1 3,-1.1 4.1,0 l 1,1 c 1.2,1.2 1.2,3.2 0,4.5 l -17.2,17.2 c -0.1,0.1 -0.1,0.2 0,0.3 l 17.4,17.4 c 1.1,1.1 1.1,3 0,4.1 l -1.2,1.2 z"/><path id="path4037" d="m 608.30481,489.55748 c 1.1,1.1 3,1.1 4.1,0 l 20.4,-20.4 c 1.3,-1.3 1.3,-3.5 0,-4.9 l -20.4,-20.4 c -1.1,-1.1 -3,-1.1 -4.1,0 l -1,1 c -1.2,1.2 -1.2,3.2 0,4.5 l 17.2,17.2 c 0.1,0.1 0.1,0.2 0,0.3 l -17.4,17.4 c -1.1,1.1 -1.1,3 0,4.1 l 1.2,1.2 z"/><path id="path4039" d="m 598.50481,442.95748 c -0.2,-0.7 -0.7,-1.4 -1.4,-1.8 l -1.4,-0.8 c -1.4,-0.8 -3.2,-0.3 -4,1.1 l -26.8,46.9 c -0.4,0.7 -0.5,1.5 -0.3,2.2 0.2,0.7 0.7,1.4 1.4,1.8 l 1.4,0.8 c 1.4,0.8 3.2,0.3 4,-1.1 l 26.8,-46.9 c 0.4,-0.7 0.5,-1.5 0.3,-2.2 z"/></g></svg>