<svg xmlns="http://www.w3.org/2000/svg" xmlns:svg="http://www.w3.org/2000/svg" id="svg4579" width="333.292" height="185.594" version="1.1"><metadata id="metadata4584"/><g id="layer1" transform="translate(-442.48363,-477.42525)"><g id="g4313" transform="translate(4542.6929,-1260.6685)"><g id="g4315"><path style="fill:none;stroke:#000;stroke-width:5;stroke-miterlimit:10" id="path4317" stroke-miterlimit="10" d="m -4064.6,1873.5 c -3.2,0 -6.2,-2.7 -7.8,-5.5 l -19.1,-33.6 c -1.6,-2.8 -1.6,-6.5 0,-9.3 l 19.1,-32.7 c 1.6,-2.8 4.6,-4.2 7.8,-4.2 h 38.2 c 3.2,0 6.2,1.2 7.8,4 l 19.1,32.8 c 1.6,2.8 1.6,6.1 0,8.9 l -19.1,34 c -1.6,2.8 -4.6,5.5 -7.8,5.5 h -38.2 z"/><path style="fill:none;stroke:#000;stroke-width:5;stroke-miterlimit:10" id="path4319" stroke-miterlimit="10" d="m -3989.2,1830.9 c -3.2,0 -6.2,-2.7 -7.8,-5.5 l -19.1,-33.6 c -1.6,-2.8 -1.6,-6.5 0,-9.3 l 19.1,-32.7 c 1.6,-2.8 4.6,-4.2 7.8,-4.2 h 38.2 c 3.2,0 6.2,1.2 7.8,4 l 19.1,32.8 c 1.6,2.8 1.6,6.1 0,8.9 l -19.1,34 c -1.6,2.8 -4.6,5.5 -7.8,5.5 h -38.2 z"/><path style="fill:none;stroke:#000;stroke-width:5;stroke-miterlimit:10" id="path4321" stroke-miterlimit="10" d="m -3914.7,1873.5 c -3.2,0 -6.2,-2.7 -7.8,-5.5 l -19.1,-33.6 c -1.6,-2.8 -1.6,-6.5 0,-9.3 l 19.1,-32.7 c 1.6,-2.8 4.6,-4.2 7.8,-4.2 h 38.2 c 3.2,0 6.2,1.2 7.8,4 l 19.1,32.8 c 1.6,2.8 1.6,6.1 0,8.9 l -19.1,34 c -1.6,2.8 -4.6,5.5 -7.8,5.5 h -38.2 z"/><path style="fill:none;stroke:#000;stroke-width:5;stroke-miterlimit:10" id="path4323" stroke-miterlimit="10" d="m -3840.7,1830.9 c -3.2,0 -6.2,-2.7 -7.8,-5.5 l -19.1,-33.6 c -1.6,-2.8 -1.6,-6.5 0,-9.3 l 19.1,-32.7 c 1.6,-2.8 4.6,-4.2 7.8,-4.2 h 38.2 c 3.2,0 6.2,1.2 7.8,4 l 19.1,32.8 c 1.6,2.8 1.6,6.1 0,8.9 l -19.1,34 c -1.6,2.8 -4.6,5.5 -7.8,5.5 h -38.2 z"/><path style="fill:none;stroke:#000;stroke-width:5;stroke-miterlimit:10" id="path4325" stroke-miterlimit="10" d="m -3840.7,1916.2 c -3.2,0 -6.2,-2.7 -7.8,-5.5 l -19.1,-33.6 c -1.6,-2.8 -1.6,-6.5 0,-9.3 l 19.1,-32.7 c 1.6,-2.8 4.6,-4.2 7.8,-4.2 h 38.2 c 3.2,0 6.2,1.2 7.8,4 l 19.1,32.8 c 1.6,2.8 1.6,6.1 0,8.9 l -19.1,34 c -1.6,2.8 -4.6,5.5 -7.8,5.5 h -38.2 z"/></g><text style="font-size:20px;font-family:Gotham-Book" id="text4327" font-size="20" transform="translate(-4071.6689,1840.9962)">Ruby</text><text style="font-size:20px;font-family:Gotham-Book" id="text4329" font-size="20" transform="translate(-4005.1926,1793.9962)">Python</text><text style="font-size:20px;font-family:Gotham-Book" id="text4331" font-size="20" transform="translate(-3932.6926,1837.4962)">Node.js</text><text style="font-size:20px;font-family:Gotham-Book" id="text4333" font-size="20" transform="translate(-3837.1926,1796.4962)">Go</text><text style="font-size:40px;font-family:Gotham-Medium" id="text4335" font-size="40" transform="translate(-3838.3298,1890.3296)">...</text></g></g></svg>